<svg width="16" height="16" viewBox="0 0 16 24" fill="none" xmlns="http://www.w3.org/2000/svg">
<path d="M9.79546 7.5L11.0856 3.40507L11.0921 3.3844L11.0975 3.36339C11.3565 2.33816 10.6205 1.25 9.50031 1.25H4.10037C3.25078 1.25 2.56939 1.9004 2.46405 2.71649L2.46395 2.71728L1.26397 12.0923L1.26384 12.0933C1.1404 13.0678 1.86949 14 2.90039 14H6.41176L4.89155 20.6813L4.89152 20.6814C4.6572 21.712 5.40873 22.75 6.49659 22.75C7.08811 22.75 7.6369 22.4268 7.93214 21.8956L14.5305 10.0234C14.5308 10.0229 14.5311 10.0223 14.5315 10.0217C15.1338 8.94599 14.4177 7.5 13.1003 7.5H9.79546Z" fill="#E4F4E4" stroke="#13AA52" stroke-width="1.5"/>
</svg>
