<svg width="696" height="40" viewBox="0 0 696 40" fill="none" xmlns="http://www.w3.org/2000/svg">
  <rect width="696" height="40" fill="#FFDD49"/>
  <path fill-rule="evenodd" clip-rule="evenodd" d="M24 27C27.866 27 31 23.866 31 20C31 16.134 27.866 13 24 13C20.134 13 17 16.134 17 20C17 23.866 20.134 27 24 27ZM23 16.5C23 15.9477 23.4477 15.5 24 15.5C24.5523 15.5 25 15.9477 25 16.5V20.5C25 21.0523 24.5523 21.5 24 21.5C23.4477 21.5 23 21.0523 23 20.5V16.5ZM25 23.5C25 24.0523 24.5523 24.5 24 24.5C23.4477 24.5 23 24.0523 23 23.5C23 22.9477 23.4477 22.5 24 22.5C24.5523 22.5 25 22.9477 25 23.5Z" fill="#86681D"/>
  <path d="M48.2754 22.4062L49.6055 21.4805C50.1719 22.3281 51.0488 22.752 52.2363 22.752C52.7168 22.752 53.1074 22.6562 53.4082 22.4648C53.7129 22.2695 53.8652 21.9941 53.8652 21.6387C53.8652 21.5254 53.8516 21.4238 53.8242 21.334C53.7969 21.2441 53.7461 21.166 53.6719 21.0996C53.6016 21.0293 53.5293 20.9707 53.4551 20.9238C53.3809 20.873 53.2715 20.8242 53.127 20.7773C52.9863 20.7305 52.8555 20.6914 52.7344 20.6602C52.6133 20.6289 52.4473 20.5898 52.2363 20.543L51.1582 20.3027C50.9043 20.2441 50.6797 20.1855 50.4844 20.127C50.293 20.0645 50.0801 19.9727 49.8457 19.8516C49.6113 19.7266 49.418 19.5859 49.2656 19.4297C49.1172 19.2695 48.9902 19.0625 48.8848 18.8086C48.7832 18.5547 48.7324 18.2695 48.7324 17.9531C48.7324 17.1797 49.0293 16.5469 49.623 16.0547C50.2168 15.5586 51.0352 15.3105 52.0781 15.3105C53.5117 15.3105 54.6523 15.8828 55.5 17.0273L54.1934 18C53.6816 17.1602 52.9453 16.7402 51.9844 16.7402C51.8945 16.7402 51.793 16.7461 51.6797 16.7578C51.5664 16.7695 51.4316 16.7988 51.2754 16.8457C51.1191 16.8887 50.9785 16.9453 50.8535 17.0156C50.7285 17.0859 50.6211 17.1875 50.5312 17.3203C50.4453 17.4492 50.4023 17.5996 50.4023 17.7715C50.4023 17.8809 50.418 17.9785 50.4492 18.0645C50.4805 18.1465 50.5332 18.2207 50.6074 18.2871C50.6816 18.3496 50.7559 18.4043 50.8301 18.4512C50.9043 18.4941 51.0117 18.5371 51.1523 18.5801C51.293 18.623 51.4141 18.6582 51.5156 18.6855C51.6172 18.709 51.7617 18.7402 51.9492 18.7793L52.834 18.9727C53.1387 19.0391 53.4062 19.1094 53.6367 19.1836C53.8672 19.2539 54.1113 19.3555 54.3691 19.4883C54.627 19.6211 54.8379 19.7734 55.002 19.9453C55.1699 20.1133 55.3086 20.3301 55.418 20.5957C55.5273 20.8574 55.582 21.1523 55.582 21.4805C55.582 21.8828 55.5039 22.2461 55.3477 22.5703C55.1953 22.8906 54.9961 23.1523 54.75 23.3555C54.5078 23.5547 54.2246 23.7227 53.9004 23.8594C53.5762 23.9922 53.2559 24.084 52.9395 24.1348C52.623 24.1895 52.3047 24.2168 51.9844 24.2168C51.2109 24.2168 50.4883 24.0684 49.8164 23.7715C49.1445 23.4746 48.6309 23.0195 48.2754 22.4062ZM57.8453 24V15.5273H63.8687V16.9453H59.4039V18.9375H63.4937V20.3027H59.4039V22.5703H64.1676V24H57.8453ZM66.2961 24V15.5273H67.8898V22.5586H71.2531V24H66.2961ZM72.6609 24V15.5273H78.6844V16.9453H74.2195V18.9375H78.3094V20.3027H74.2195V22.5703H78.9832V24H72.6609ZM80.0688 19.6816C80.0688 19.2871 80.1117 18.8945 80.1977 18.5039C80.2875 18.1094 80.434 17.7188 80.6371 17.332C80.8402 16.9414 81.0922 16.5996 81.393 16.3066C81.6938 16.0098 82.0766 15.7695 82.5414 15.5859C83.0063 15.4023 83.5219 15.3105 84.0883 15.3105C84.5102 15.3105 84.8969 15.3633 85.2484 15.4688C85.6039 15.5742 85.9027 15.7109 86.1449 15.8789C86.3871 16.0469 86.6039 16.25 86.7953 16.4883C86.9867 16.7227 87.1371 16.957 87.2465 17.1914C87.3598 17.4219 87.4555 17.668 87.5336 17.9297L85.9574 18.334C85.9105 17.877 85.7152 17.502 85.3715 17.209C85.0277 16.9121 84.6195 16.7637 84.1469 16.7637C83.4398 16.7637 82.8695 17.0234 82.4359 17.543C82.0023 18.0586 81.7855 18.7793 81.7855 19.7051C81.7855 19.9121 81.7992 20.1211 81.8266 20.332C81.8578 20.543 81.9066 20.7656 81.973 21C82.0395 21.2305 82.1332 21.4453 82.2543 21.6445C82.3754 21.8438 82.518 22.0254 82.682 22.1895C82.85 22.3535 83.059 22.4824 83.309 22.5762C83.559 22.6699 83.8344 22.7168 84.1352 22.7168C84.6469 22.7168 85.0824 22.5508 85.4418 22.2188C85.8012 21.8867 86.0492 21.4844 86.1859 21.0117L87.6859 21.6387C87.6391 21.7637 87.5844 21.8887 87.5219 22.0137C87.4633 22.1348 87.3773 22.2852 87.2641 22.4648C87.1547 22.6406 87.0336 22.8047 86.9008 22.957C86.768 23.1094 86.602 23.2656 86.4027 23.4258C86.2074 23.5859 85.9965 23.7227 85.7699 23.8359C85.5473 23.9453 85.2855 24.0352 84.9848 24.1055C84.684 24.1797 84.3656 24.2168 84.0297 24.2168C83.6195 24.2168 83.225 24.1621 82.8461 24.0527C82.4672 23.9434 82.1078 23.7695 81.768 23.5312C81.4281 23.293 81.1332 23 80.8832 22.6523C80.6332 22.3047 80.434 21.877 80.2855 21.3691C80.141 20.8574 80.0688 20.2949 80.0688 19.6816ZM88.3027 16.957V15.5273H94.5312V16.957H92.1934V24H90.6055V16.957H88.3027ZM99.1047 24L101.976 15.5273H103.775L106.669 24H104.976L104.484 22.3418H101.302L100.81 24H99.1047ZM101.724 20.9531H104.062L102.896 17.0508L101.724 20.9531ZM108.177 24V15.5273H109.606L113.362 21.5039C113.241 17.6484 113.177 15.6562 113.169 15.5273H114.727V24H113.339L109.63 18.0586C109.692 21.9141 109.723 23.8945 109.723 24H108.177ZM120.883 24V15.5273H126.906V16.9453H122.441V18.9375H126.531V20.3027H122.441V22.5703H127.205V24H120.883ZM129.334 24V15.5273H130.927V22.5586H134.291V24H129.334ZM135.698 24V15.5273H141.722V16.9453H137.257V18.9375H141.347V20.3027H137.257V22.5703H142.021V24H135.698ZM144.079 24V15.5273H146.382L148.034 21.8145L149.669 15.5273H151.96V24H150.413L150.571 17.0391L148.731 24H147.307L145.468 17.0391C145.573 21.4961 145.626 23.8164 145.626 24H144.079ZM154.745 24V15.5273H160.768V16.9453H156.303V18.9375H160.393V20.3027H156.303V22.5703H161.067V24H154.745ZM163.195 24V15.5273H164.625L168.381 21.5039C168.26 17.6484 168.195 15.6562 168.188 15.5273H169.746V24H168.357L164.648 18.0586C164.711 21.9141 164.742 23.8945 164.742 24H163.195ZM171.371 16.957V15.5273H177.599V16.957H175.261V24H173.673V16.957H171.371ZM182.677 19.7754C182.677 19.1582 182.774 18.5762 182.97 18.0293C183.169 17.4824 183.442 17.0098 183.79 16.6113C184.141 16.209 184.573 15.8926 185.085 15.6621C185.596 15.4277 186.151 15.3105 186.749 15.3105C187.253 15.3105 187.721 15.3906 188.155 15.5508C188.593 15.707 188.971 15.9238 189.292 16.2012C189.612 16.4785 189.886 16.8027 190.112 17.1738C190.343 17.5449 190.514 17.9473 190.628 18.3809C190.745 18.8105 190.804 19.2559 190.804 19.7168C190.804 20.002 190.782 20.2871 190.739 20.5723C190.696 20.8574 190.624 21.1504 190.522 21.4512C190.425 21.748 190.302 22.0293 190.153 22.2949C190.005 22.5605 189.819 22.8125 189.596 23.0508C189.374 23.2852 189.126 23.4883 188.852 23.6602C188.579 23.832 188.259 23.9668 187.891 24.0645C187.524 24.166 187.13 24.2168 186.708 24.2168C186.098 24.2168 185.538 24.0977 185.026 23.8594C184.514 23.6172 184.089 23.293 183.749 22.8867C183.413 22.4805 183.149 22.0098 182.958 21.4746C182.77 20.9355 182.677 20.3691 182.677 19.7754ZM184.311 19.7168C184.311 19.9941 184.337 20.2695 184.387 20.543C184.442 20.8125 184.53 21.082 184.651 21.3516C184.776 21.6172 184.93 21.8516 185.114 22.0547C185.298 22.2578 185.53 22.4238 185.811 22.5527C186.096 22.6777 186.413 22.7402 186.761 22.7402C187.081 22.7402 187.386 22.6797 187.675 22.5586C187.964 22.4336 188.223 22.2539 188.454 22.0195C188.684 21.7852 188.866 21.4805 188.999 21.1055C189.136 20.7305 189.204 20.3105 189.204 19.8457C189.204 19.5371 189.173 19.2363 189.11 18.9434C189.048 18.6504 188.95 18.373 188.817 18.1113C188.684 17.8457 188.522 17.6133 188.331 17.4141C188.143 17.2148 187.911 17.0566 187.634 16.9395C187.36 16.8223 187.061 16.7637 186.737 16.7637C186.022 16.7637 185.438 17.0293 184.985 17.5605C184.536 18.0879 184.311 18.8066 184.311 19.7168ZM192.745 24V15.5273H194.174L197.93 21.5039C197.809 17.6484 197.745 15.6562 197.737 15.5273H199.295V24H197.907L194.198 18.0586C194.26 21.9141 194.291 23.8945 194.291 24H192.745ZM204.777 16.957V15.5273H211.005V16.957H208.668V24H207.08V16.957H204.777ZM212.613 24V15.5273H214.206V18.7207H217.845V15.5273H219.439V24H217.845V20.1504H214.206V24H212.613ZM222.235 24V15.5273H228.259V16.9453H223.794V18.9375H227.884V20.3027H223.794V22.5703H228.557V24H222.235ZM234.039 24V15.5273H237.326C238.217 15.5273 238.941 15.7832 239.5 16.2949C240.059 16.8027 240.338 17.4863 240.338 18.3457C240.338 18.7402 240.279 19.1016 240.162 19.4297C240.045 19.7578 239.865 20.0508 239.623 20.3086C239.381 20.5625 239.057 20.7617 238.65 20.9062C238.248 21.0469 237.779 21.1172 237.244 21.1172H235.621V24H234.039ZM235.621 19.8223H237.016C238.145 19.8223 238.709 19.3145 238.709 18.2988C238.709 18.1113 238.686 17.9434 238.639 17.7949C238.596 17.6426 238.541 17.5176 238.475 17.4199C238.408 17.3223 238.32 17.2402 238.211 17.1738C238.102 17.1035 237.996 17.0508 237.895 17.0156C237.797 16.9766 237.678 16.9473 237.537 16.9277C237.396 16.9082 237.277 16.8965 237.18 16.8926C237.086 16.8887 236.971 16.8867 236.834 16.8867H235.621V19.8223ZM240.275 24L243.146 15.5273H244.945L247.839 24H246.146L245.654 22.3418H242.472L241.98 24H240.275ZM242.894 20.9531H245.232L244.066 17.0508L242.894 20.9531ZM248.667 19.8457C248.667 19.4355 248.716 19.0234 248.814 18.6094C248.915 18.1953 249.075 17.7891 249.294 17.3906C249.513 16.9922 249.777 16.6406 250.085 16.3359C250.398 16.0273 250.786 15.7793 251.251 15.5918C251.716 15.4043 252.224 15.3105 252.775 15.3105C253.634 15.3105 254.374 15.5469 254.995 16.0195C255.62 16.4922 256.068 17.0879 256.337 17.8066L254.825 18.4102C254.794 18.3164 254.767 18.2422 254.743 18.1875C254.72 18.1289 254.675 18.0352 254.609 17.9062C254.546 17.7734 254.482 17.6641 254.415 17.5781C254.353 17.4883 254.265 17.3867 254.152 17.2734C254.038 17.1602 253.917 17.0684 253.788 16.998C253.663 16.9277 253.511 16.8672 253.331 16.8164C253.155 16.7656 252.966 16.7402 252.763 16.7402C252.044 16.7402 251.47 17.0176 251.04 17.5723C250.611 18.123 250.396 18.8652 250.396 19.7988C250.396 19.8809 250.398 19.9746 250.402 20.0801C250.409 20.1816 250.431 20.332 250.466 20.5312C250.501 20.7305 250.548 20.9199 250.607 21.0996C250.669 21.2793 250.761 21.4727 250.882 21.6797C251.003 21.8828 251.144 22.0586 251.304 22.207C251.468 22.3516 251.679 22.4727 251.937 22.5703C252.195 22.668 252.482 22.7168 252.798 22.7168C253.364 22.7168 253.833 22.5508 254.204 22.2188C254.575 21.8867 254.802 21.4004 254.884 20.7598H252.775V19.3652H256.337V24H254.966V23.2793C254.618 23.6035 254.261 23.8418 253.894 23.9941C253.527 24.1426 253.109 24.2168 252.64 24.2168C252.23 24.2168 251.831 24.1582 251.445 24.041C251.062 23.9238 250.702 23.7461 250.366 23.5078C250.03 23.2656 249.736 22.9746 249.482 22.6348C249.232 22.2949 249.032 21.8848 248.884 21.4043C248.739 20.9238 248.667 20.4043 248.667 19.8457ZM258.958 24V15.5273H264.981V16.9453H260.516V18.9375H264.606V20.3027H260.516V22.5703H265.28V24H258.958ZM266.366 24V22.3535H267.948V24H266.366Z" fill="#86681D"/>
  <path d="M683.89 15.4039C683.499 15.0133 682.866 15.0133 682.475 15.4039L680 17.8787L677.526 15.4039C677.135 15.0133 676.502 15.0133 676.111 15.4039L675.404 16.111C675.014 16.5015 675.014 17.1347 675.404 17.5252L677.879 20L675.404 22.4749C675.014 22.8654 675.014 23.4986 675.404 23.8891L676.111 24.5962C676.502 24.9868 677.135 24.9868 677.526 24.5962L680 22.1214L682.475 24.5962C682.866 24.9868 683.499 24.9868 683.89 24.5962L684.597 23.8891C684.987 23.4986 684.987 22.8654 684.597 22.4749L682.122 20L684.597 17.5252C684.987 17.1347 684.987 16.5015 684.597 16.111L683.89 15.4039Z" fill="#86681D"/>
</svg>