<svg width="10" height="10" viewBox="0 0 10 10" fill="none" xmlns="http://www.w3.org/2000/svg">
<path d="M6.37866 3.62044C7.54559 4.78858 7.52958 6.66142 6.38569 7.81165C6.38354 7.81399 6.381 7.81653 6.37866 7.81888L5.06616 9.13138C3.90854 10.289 2.02517 10.2888 0.867725 9.13138C-0.289893 7.97396 -0.289893 6.09036 0.867725 4.93294L1.59245 4.20821C1.78464 4.01603 2.11562 4.14376 2.12554 4.41536C2.13819 4.76149 2.20026 5.10925 2.31479 5.44507C2.35358 5.55878 2.32587 5.68456 2.24091 5.76952L1.9853 6.02513C1.43792 6.57251 1.42075 7.4638 1.96274 8.01653C2.51009 8.57472 3.40974 8.57804 3.96128 8.02649L5.27378 6.71419C5.82438 6.16358 5.82208 5.27362 5.27378 4.72532C5.20149 4.65317 5.12868 4.59712 5.07181 4.55796C5.03157 4.53033 4.99835 4.49368 4.97479 4.45093C4.95123 4.40818 4.93799 4.36052 4.93612 4.31175C4.92839 4.10536 5.00151 3.89269 5.1646 3.7296L5.57581 3.31837C5.68364 3.21054 5.8528 3.1973 5.97784 3.28456C6.12104 3.38455 6.25516 3.49694 6.37866 3.62044ZM9.1313 0.867666C7.97386 -0.289795 6.09048 -0.289951 4.93286 0.867666L3.62036 2.18017C3.61802 2.18251 3.61548 2.18505 3.61333 2.18739C2.46946 3.33763 2.45343 5.21046 3.62036 6.3786C3.74385 6.50209 3.87797 6.61448 4.02116 6.71446C4.1462 6.80173 4.31538 6.78847 4.42319 6.68066L4.8344 6.26942C4.99749 6.10634 5.07061 5.89366 5.06288 5.68728C5.06101 5.6385 5.04777 5.59084 5.02421 5.54809C5.00065 5.50535 4.96743 5.46869 4.9272 5.44106C4.87032 5.4019 4.79751 5.34585 4.72522 5.2737C4.17692 4.7254 4.17462 3.83544 4.72522 3.28483L6.03772 1.97253C6.58927 1.42099 7.4889 1.42431 8.03626 1.98249C8.57825 2.53522 8.5611 3.42651 8.0137 3.9739L7.75809 4.2295C7.67313 4.31446 7.64542 4.44024 7.68421 4.55396C7.79874 4.88978 7.86081 5.23753 7.87347 5.58366C7.88341 5.85526 8.21436 5.983 8.40655 5.79081L9.13128 5.06608C10.2889 3.90868 10.2889 2.02509 9.1313 0.867666Z" fill="#89979B"/>
</svg>
